<svg width="921" height="240" viewBox="0 0 921 240" fill="none" xmlns="http://www.w3.org/2000/svg">
<g clip-path="url(#clip0)">
<circle cx="120" cy="120" r="120" fill="url(#paint0_linear)"/>
<path d="M239.933 115.966C237.806 180.373 184.924 231.933 120 231.933C55.0757 231.933 2.19376 180.373 0.0665161 115.966C0.0222881 117.305 0 118.65 0 120C0 186.274 53.7258 240 120 240C186.274 240 240 186.274 240 120C240 118.65 239.978 117.305 239.933 115.966Z" fill="black" fill-opacity="0.05"/>
<path d="M69.5798 131.092L120 30.2521V108.403H170.42L120 209.244V131.092H69.5798Z" fill="white"/>
<g filter="url(#filter0_i)">
<path d="M287.836 44.768H406.82V80.078H335.13V105.33H396.762V139.142H335.13V192H287.836V44.768ZM488.956 76.226C492.237 76.226 495.162 76.654 497.73 77.51C500.298 78.2233 501.582 78.6513 501.582 78.794V114.532H487.886C479.041 114.532 472.621 116.815 468.626 121.38C464.774 125.945 462.848 132.722 462.848 141.71V192H420.262V79.008H455.144L457.926 96.128C460.494 89.5653 464.56 84.6433 470.124 81.362C475.688 77.938 481.965 76.226 488.956 76.226ZM577.116 76.44C597.802 76.44 613.567 81.2907 624.41 90.992C635.395 100.693 640.888 115.531 640.888 135.504V142.78H556.144C556.144 150.912 557.927 157.047 561.494 161.184C565.203 165.321 570.981 167.39 578.828 167.39C585.961 167.39 591.168 165.892 594.45 162.896C597.874 159.9 599.586 155.905 599.586 150.912H640.888C640.888 164.608 635.68 175.308 625.266 183.012C614.851 190.716 599.657 194.568 579.684 194.568C558.712 194.568 542.448 189.717 530.892 180.016C519.336 170.172 513.558 155.335 513.558 135.504C513.558 116.101 519.193 101.407 530.464 91.42C541.734 81.4333 557.285 76.44 577.116 76.44ZM578.828 103.618C565.417 103.618 557.927 109.967 556.358 122.664H597.874C597.874 116.815 596.162 112.178 592.738 108.754C589.456 105.33 584.82 103.618 578.828 103.618ZM717.284 76.44C734.547 76.44 748.599 79.3647 759.442 85.214C770.285 90.9207 775.706 100.265 775.706 113.248V157.332C775.706 159.757 776.277 161.755 777.418 163.324C778.559 164.893 780.271 165.678 782.554 165.678H790.258V190.288C789.83 190.573 788.689 191.073 786.834 191.786C785.122 192.357 782.625 192.927 779.344 193.498C776.063 194.211 772.282 194.568 768.002 194.568C759.727 194.568 752.879 193.355 747.458 190.93C742.179 188.362 738.541 184.867 736.544 180.444C731.123 184.724 725.059 188.148 718.354 190.716C711.649 193.284 703.802 194.568 694.814 194.568C668.278 194.568 655.01 184.011 655.01 162.896C655.01 151.911 657.935 143.565 663.784 137.858C669.776 132.009 678.336 128.014 689.464 125.874C700.592 123.734 715.144 122.664 733.12 122.664V117.1C733.12 112.677 731.551 109.325 728.412 107.042C725.416 104.759 721.493 103.618 716.642 103.618C712.219 103.618 708.367 104.403 705.086 105.972C701.947 107.541 700.378 110.038 700.378 113.462V114.318H658.434C658.291 113.605 658.22 112.606 658.22 111.322C658.22 100.622 663.285 92.1333 673.414 85.856C683.686 79.5787 698.309 76.44 717.284 76.44ZM733.12 142.78C720.993 142.78 712.005 144.135 706.156 146.846C700.449 149.414 697.596 152.909 697.596 157.332C697.596 164.465 702.447 168.032 712.148 168.032C717.712 168.032 722.563 166.534 726.7 163.538C730.98 160.542 733.12 156.833 733.12 152.41V142.78ZM886.342 192L882.704 175.95C874.43 188.362 862.446 194.568 846.752 194.568C831.487 194.568 819.717 189.575 811.442 179.588C803.168 169.601 799.03 154.835 799.03 135.29C799.03 115.887 803.168 101.264 811.442 91.42C819.717 81.4333 831.487 76.44 846.752 76.44C859.735 76.44 870.292 80.7913 878.424 89.494V36.85H921.01V192H886.342ZM860.02 107.898C847.751 107.898 841.616 115.245 841.616 129.94V141.282C841.616 155.834 847.751 163.11 860.02 163.11C866.298 163.11 871.006 160.899 874.144 156.476C877.283 152.053 878.852 146.275 878.852 139.142V132.08C878.852 124.947 877.283 119.169 874.144 114.746C871.006 110.181 866.298 107.898 860.02 107.898Z" fill="url(#paint1_linear)"/>
</g>
</g>
<defs>
<filter id="filter0_i" x="287.836" y="36.85" width="633.174" height="157.718" filterUnits="userSpaceOnUse" color-interpolation-filters="sRGB">
<feFlood flood-opacity="0" result="BackgroundImageFix"/>
<feBlend mode="normal" in="SourceGraphic" in2="BackgroundImageFix" result="shape"/>
<feColorMatrix in="SourceAlpha" type="matrix" values="0 0 0 0 0 0 0 0 0 0 0 0 0 0 0 0 0 0 127 0" result="hardAlpha"/>
<feOffset dy="-8"/>
<feComposite in2="hardAlpha" operator="arithmetic" k2="-1" k3="1"/>
<feColorMatrix type="matrix" values="0 0 0 0 0 0 0 0 0 0 0 0 0 0 0 0 0 0 0.05 0"/>
<feBlend mode="normal" in2="shape" result="effect1_innerShadow"/>
</filter>
<linearGradient id="paint0_linear" x1="240" y1="0" x2="0" y2="240" gradientUnits="userSpaceOnUse">
<stop stop-color="#F8E45C"/>
<stop offset="1" stop-color="#FFA348"/>
</linearGradient>
<linearGradient id="paint1_linear" x1="935" y1="4" x2="789.235" y2="418.773" gradientUnits="userSpaceOnUse">
<stop stop-color="#F8E45C"/>
<stop offset="1" stop-color="#FFA348"/>
</linearGradient>
<clipPath id="clip0">
<rect width="921" height="240" fill="white"/>
</clipPath>
</defs>
</svg>
